{
    "asset": {
        "version": "2.0",
        "generator": "Open Asset Import Library (assimp v5.0.5eb040c7)"
    },
    "accessors": [
        {
            "bufferView": 0,
            "byteOffset": 0,
            "componentType": 5126,
            "count": 59014,
            "type": "VEC3",
            "max": [
                7.260412216186523,
                7.778685569763184,
                6.757328033447266
            ],
            "min": [
                -7.2732744216918949,
                -4.2667059898376469,
                -0.901570200920105
            ]
        },
        {
            "bufferView": 1,
            "byteOffset": 0,
            "componentType": 5126,
            "count": 59014,
            "type": "VEC3",
            "max": [
                1.0,
                1.0,
                1.0
            ],
            "min": [
                -1.0,
                -1.0,
                -1.0
            ]
        },
        {
            "bufferView": 2,
            "byteOffset": 0,
            "componentType": 5125,
            "count": 133608,
            "type": "SCALAR",
            "max": [
                59013
            ],
            "min": [
                0
            ]
        },
        {
            "bufferView": 3,
            "byteOffset": 0,
            "componentType": 5126,
            "count": 180,
            "type": "VEC3",
            "max": [
                0.5361909866333008,
                0.7328084707260132,
                0.699999988079071
            ],
            "min": [
                -0.5361909866333008,
                -0.025594770908355714,
                0.0
            ]
        },
        {
            "bufferView": 4,
            "byteOffset": 0,
            "componentType": 5126,
            "count": 180,
            "type": "VEC3",
            "max": [
                1.0,
                1.0,
                1.0
            ],
            "min": [
                -1.0,
                -1.0,
                -1.0
            ]
        },
        {
            "bufferView": 5,
            "byteOffset": 0,
            "componentType": 5125,
            "count": 294,
            "type": "SCALAR",
            "max": [
                179
            ],
            "min": [
                0
            ]
        }
    ],
    "buffers": [
        {
            "byteLength": 1956264,
            "uri": "result.bin"
        }
    ],
    "bufferViews": [
        {
            "buffer": 0,
            "byteOffset": 0,
            "byteLength": 708168,
            "target": 34962
        },
        {
            "buffer": 0,
            "byteOffset": 708168,
            "byteLength": 708168,
            "target": 34962
        },
        {
            "buffer": 0,
            "byteOffset": 1416336,
            "byteLength": 534432,
            "target": 34963
        },
        {
            "buffer": 0,
            "byteOffset": 1950768,
            "byteLength": 2160,
            "target": 34962
        },
        {
            "buffer": 0,
            "byteOffset": 1952928,
            "byteLength": 2160,
            "target": 34962
        },
        {
            "buffer": 0,
            "byteOffset": 1955088,
            "byteLength": 1176,
            "target": 34963
        }
    ],
    "materials": [
        {
            "name": "material",
            "pbrMetallicRoughness": {
                "baseColorFactor": [
                    0.800000011920929,
                    0.800000011920929,
                    0.800000011920929,
                    1.0
                ],
                "metallicFactor": 0.0,
                "roughnessFactor": 0.8482106924057007
            }
        }
    ],
    "meshes": [
        {
            "name": "Cube.009",
            "primitives": [
                {
                    "mode": 4,
                    "material": 0,
                    "indices": 2,
                    "attributes": {
                        "POSITION": 0,
                        "NORMAL": 1
                    }
                }
            ]
        },
        {
            "name": "Plane.075",
            "primitives": [
                {
                    "mode": 4,
                    "material": 0,
                    "indices": 5,
                    "attributes": {
                        "POSITION": 3,
                        "NORMAL": 4
                    }
                }
            ]
        }
    ],
    "nodes": [
        {
            "name": "RootNode",
            "children": [
                1,
                2
            ]
        },
        {
            "name": "01_Haiden",
            "matrix": [
                100.0,
                0.0,
                0.0,
                0.0,
                0.0,
                -0.000016292067812173629,
                -100.0,
                0.0,
                0.0,
                100.0,
                -0.000016292067812173629,
                0.0,
                0.6430960893630981,
                90.15702056884766,
                -424.4316711425781,
                1.0
            ],
            "mesh": 0
        },
        {
            "name": "01_SaisenBako",
            "matrix": [
                100.0,
                0.0,
                0.0,
                0.0,
                0.0,
                -0.000016125888578244486,
                -98.97999572753906,
                0.0,
                0.0,
                100.0,
                -0.000016292067812173629,
                0.0,
                0.0,
                30.000001907348634,
                -152.3241729736328,
                1.0
            ],
            "mesh": 1
        }
    ],
    "scenes": [
        {
            "nodes": [
                0
            ]
        }
    ],
    "scene": 0
}