{
  "accessors": [
    {
      "bufferView": 2,
      "componentType": 5126,
      "count": 9132,
      "max": [
        0.26404246687889099,
        0.59642696380615234,
        0.94970506429672241
      ],
      "min": [
        -0.19935184717178345,
        -0.55210363864898682,
        -0.97131788730621338
      ],
      "type": "VEC3"
    },
    {
      "bufferView": 2,
      "byteOffset": 109584,
      "componentType": 5126,
      "count": 9132,
      "max": [
        0.99919241666793823,
        0.99889004230499268,
        0.99958145618438721
      ],
      "min": [
        -0.99989742040634155,
        -0.99952757358551025,
        -0.99976551532745361
      ],
      "type": "VEC3"
    },
    {
      "bufferView": 3,
      "componentType": 5126,
      "count": 9132,
      "max": [
        0.99923461675643921,
        0.99976497888565063,
        0.99095249176025391,
        1
      ],
      "min": [
        -0.99985939264297485,
        -0.99995338916778564,
        -0.99933558702468872,
        -1
      ],
      "type": "VEC4"
    },
    {
      "bufferView": 1,
      "componentType": 5126,
      "count": 9132,
      "max": [
        0.99169701337814331,
        0.99723100662231445
      ],
      "min": [
        0.0041379998438060284,
        0.0014510154724121094
      ],
      "type": "VEC2"
    },
    {
      "bufferView": 0,
      "componentType": 5125,
      "count": 9132,
      "max": [
        9131
      ],
      "min": [
        0
      ],
      "type": "SCALAR"
    }
  ],
  "asset": {
    "extras": {
      "author": "nwy140 (https://sketchfab.com/nwy140)",
      "license": "CC-BY-4.0 (http://creativecommons.org/licenses/by/4.0/)",
      "source": "https://sketchfab.com/models/9300eb3ffa924c55a0d25c8311946ffd",
      "title": "Ultraman Gaia"
    },
    "generator": "Sketchfab-3.20.7",
    "version": "2.0"
  },
  "bufferViews": [
    {
      "buffer": 0,
      "byteLength": 36528,
      "byteOffset": 0,
      "name": "floatBufferViews",
      "target": 34963
    },
    {
      "buffer": 0,
      "byteLength": 73056,
      "byteOffset": 36528,
      "byteStride": 8,
      "name": "floatBufferViews",
      "target": 34962
    },
    {
      "buffer": 0,
      "byteLength": 219168,
      "byteOffset": 109584,
      "byteStride": 12,
      "name": "floatBufferViews",
      "target": 34962
    },
    {
      "buffer": 0,
      "byteLength": 146112,
      "byteOffset": 328752,
      "byteStride": 16,
      "name": "floatBufferViews",
      "target": 34962
    }
  ],
  "buffers": [
    {
      "byteLength": 474864,
      "uri": "scene.bin"
    }
  ],
  "extensionsRequired": [
    "KHR_materials_pbrSpecularGlossiness"
  ],
  "extensionsUsed": [
    "KHR_materials_pbrSpecularGlossiness"
  ],
  "images": [
    {
      "uri": "textures/Material_29_diffuse.png"
    }
  ],
  "materials": [
    {
      "doubleSided": true,
      "emissiveFactor": [
        0,
        0,
        0
      ],
      "extensions": {
        "KHR_materials_pbrSpecularGlossiness": {
          "diffuseFactor": [
            1,
            1,
            1,
            1
          ],
          "diffuseTexture": {
            "index": 0,
            "texCoord": 0
          },
          "glossinessFactor": 0.1070286404,
          "specularFactor": [
            0,
            0,
            0
          ]
        }
      },
      "name": "Material_29"
    }
  ],
  "meshes": [
    {
      "name": "Skin_Mesh_Material #29_0",
      "primitives": [
        {
          "attributes": {
            "NORMAL": 1,
            "POSITION": 0,
            "TANGENT": 2,
            "TEXCOORD_0": 3
          },
          "indices": 4,
          "material": 0,
          "mode": 4
        }
      ]
    }
  ],
  "nodes": [
    {
      "children": [
        1
      ],
      "name": "RootNode (gltf orientation matrix)",
      "rotation": [
        -0.70710678118654746,
        -0,
        -0,
        0.70710678118654757
      ]
    },
    {
      "children": [
        2
      ],
      "matrix": [
        0,
        -1,
        0,
        0,
        1,
        0,
        0,
        0,
        0,
        0,
        1,
        0,
        0.010183468461036682,
        0.054506257176399231,
        0,
        1
      ],
      "name": "RootNode (model correction matrix)"
    },
    {
      "children": [
        3
      ],
      "matrix": [
        1,
        0,
        0,
        0,
        0,
        0,
        1,
        0,
        0,
        -1,
        0,
        0,
        0,
        0,
        0,
        1
      ],
      "name": "8dff5cee7ee6457b912c3cf6062fd105.fbx"
    },
    {
      "children": [
        4
      ],
      "name": "RootNode"
    },
    {
      "children": [
        5
      ],
      "matrix": [
        1,
        0,
        0,
        0,
        0,
        2.2204460492503131e-16,
        -1,
        0,
        0,
        1,
        2.2204460492503131e-16,
        0,
        0,
        0,
        0,
        1
      ],
      "name": "Skin_Mesh"
    },
    {
      "mesh": 0,
      "name": "Skin_Mesh_Material #29_0"
    }
  ],
  "samplers": [
    {
      "magFilter": 9729,
      "minFilter": 9987,
      "wrapS": 10497,
      "wrapT": 10497
    }
  ],
  "scene": 0,
  "scenes": [
    {
      "name": "OSG_Scene",
      "nodes": [
        0
      ]
    }
  ],
  "textures": [
    {
      "sampler": 0,
      "source": 0
    }
  ]
}

