{
   "accessors" : [
      {
         "bufferView" : 2,
         "byteOffset" : 0,
         "componentType" : 5126,
         "count" : 1532,
         "max" : [ 1, 1, 1, 1 ],
         "min" : [ 0, 0.006584956776350737, 0.006584956776350737, 1 ],
         "name" : "accessor_color_m0-PolyPaper5_-302752",
         "type" : "VEC4"
      },
      {
         "bufferView" : 2,
         "byteOffset" : 24512,
         "componentType" : 5126,
         "count" : 12,
         "max" : [ 1, 1, 1, 1 ],
         "min" : [ 1, 1, 1, 1 ],
         "name" : "accessor_color_m1-PolyGlass24_-302758",
         "type" : "VEC4"
      },
      {
         "bufferView" : 0,
         "byteOffset" : 0,
         "componentType" : 5123,
         "count" : 2268,
         "max" : [ 1531 ],
         "min" : [ 0 ],
         "name" : "accessor_indices_0_m0-PolyPaper5_-302752",
         "type" : "SCALAR"
      },
      {
         "bufferView" : 0,
         "byteOffset" : 4536,
         "componentType" : 5123,
         "count" : 18,
         "max" : [ 11 ],
         "min" : [ 0 ],
         "name" : "accessor_indices_0_m1-PolyGlass24_-302758",
         "type" : "SCALAR"
      },
      {
         "bufferView" : 1,
         "byteOffset" : 18384,
         "componentType" : 5126,
         "count" : 1532,
         "max" : [ 1, 1, 1 ],
         "min" : [ -1, -1, -1 ],
         "name" : "accessor_normal_m0-PolyPaper5_-302752",
         "type" : "VEC3"
      },
      {
         "bufferView" : 1,
         "byteOffset" : 36912,
         "componentType" : 5126,
         "count" : 12,
         "max" : [ 6.561986e-07, -0.9999999000000001, 3.280989e-07 ],
         "min" : [ -3.28099e-07, -1, -3.280988e-07 ],
         "name" : "accessor_normal_m1-PolyGlass24_-302758",
         "type" : "VEC3"
      },
      {
         "bufferView" : 1,
         "byteOffset" : 0,
         "componentType" : 5126,
         "count" : 1532,
         "max" : [ 1.279926, -0.1316656, 1.269976 ],
         "min" : [ -2.170074, -1.047452, -2.180023 ],
         "name" : "accessor_position_m0-PolyPaper5_-302752",
         "type" : "VEC3"
      },
      {
         "bufferView" : 1,
         "byteOffset" : 36768,
         "componentType" : 5126,
         "count" : 12,
         "max" : [ 0.1099807, -1.039998, 0.0900811 ],
         "min" : [ -0.9800192, -1.039999, -0.9999189000000001 ],
         "name" : "accessor_position_m1-PolyGlass24_-302758",
         "type" : "VEC3"
      }
   ],
   "asset" : {
      "copyright" : "Unknown",
      "generator" : "glTF 1-to-2 Upgrader for Google Blocks",
      "version" : "2.0"
   },
   "bufferViews" : [
      {
         "buffer" : 0,
         "byteLength" : 4572,
         "byteOffset" : 0,
         "name" : "ushortBufferView",
         "target" : 34963
      },
      {
         "buffer" : 0,
         "byteLength" : 37056,
         "byteOffset" : 4572,
         "byteStride" : 12,
         "name" : "vec3BufferView",
         "target" : 34962
      },
      {
         "buffer" : 0,
         "byteLength" : 24704,
         "byteOffset" : 41628,
         "byteStride" : 16,
         "name" : "vec4BufferView",
         "target" : 34962
      }
   ],
   "buffers" : [
      {
         "byteLength" : 66332,
         "name" : "model",
         "uri" : "model.bin"
      }
   ],
   "materials" : [
      {
         "alphaMode" : "OPAQUE",
         "doubleSided" : false,
         "name" : "BlocksPaper",
         "pbrMetallicRoughness" : {
            "baseColorFactor" : [ 1, 1, 1, 1 ],
            "metallicFactor" : 0,
            "roughnessFactor" : 0.6
         }
      },
      {
         "alphaMode" : "BLEND",
         "doubleSided" : false,
         "name" : "BlocksGlass",
         "pbrMetallicRoughness" : {
            "baseColorFactor" : [ 0.2, 0.2, 1, 0.3 ],
            "metallicFactor" : 1,
            "roughnessFactor" : 0.4
         }
      },
      {
         "alphaMode" : "OPAQUE",
         "doubleSided" : true,
         "name" : "BlocksGem",
         "pbrMetallicRoughness" : {
            "baseColorFactor" : [ 1, 0.4, 1, 1 ],
            "metallicFactor" : 0,
            "roughnessFactor" : 0.1
         }
      }
   ],
   "meshes" : [
      {
         "name" : "mesh_m0-PolyPaper5_-302752",
         "primitives" : [
            {
               "attributes" : {
                  "COLOR_0" : 0,
                  "NORMAL" : 4,
                  "POSITION" : 6
               },
               "indices" : 2,
               "material" : 0,
               "mode" : 4
            }
         ]
      },
      {
         "name" : "mesh_m1-PolyGlass24_-302758",
         "primitives" : [
            {
               "attributes" : {
                  "COLOR_0" : 1,
                  "NORMAL" : 5,
                  "POSITION" : 7
               },
               "indices" : 3,
               "material" : 1,
               "mode" : 4
            }
         ]
      }
   ],
   "nodes" : [
      {
         "mesh" : 0,
         "name" : "node_MeshObject-587198464-PolyPaper5"
      },
      {
         "mesh" : 1,
         "name" : "node_MeshObject1146534912-PolyGlass24"
      }
   ],
   "scene" : 0,
   "scenes" : [
      {
         "extras" : {},
         "name" : "defaultScene",
         "nodes" : [ 0, 1 ]
      }
   ]
}
